# xmcd
#
# Track frame offsets:
#	150
#	11947
#	37668
#	54802
#	68167
#	91323
#	107797
#	127199
#
# Disc length: 1977 seconds
#
# Revision: 1
# Processed by: cddbd v1.5.2PL0 Copyright (c) Steve Scherf et al.
# Submitted via: audiograbber 1.83.01
#
DISCID=6207b708
DTITLE=Mickael Mazaleyrat/wolfgang Bereiter - Pyromane Blues
DYEAR=2000
DGENRE=Blues
TTITLE0=Joue Pas Le Rock´n Roll
TTITLE1=Rien Qu´un Petit Blues
TTITLE2=Bring It Home To Me
TTITLE3=That´s All Right, Mama
TTITLE4=Käse Und Wein
TTITLE5=Toute La Musique Que J´aime
TTITLE6=Pyromane Blues
TTITLE7=Un Qui Pro Quo
EXTD=
EXTT0=
EXTT1=
EXTT2=
EXTT3=
EXTT4=
EXTT5=
EXTT6=
EXTT7=
PLAYORDER=
